<svg width="26" height="32" viewBox="0 0 28 34" fill="none" xmlns="http://www.w3.org/2000/svg">
<path d="M18.378 1H9.91728C8.85068 1 7.89269 1.66302 7.23225 2.50055C6.78289 3.0704 6.15421 3.70525 5.31466 4.21858C4.85781 4.49791 4.41542 4.70271 4.00387 4.85235C2.67656 5.33497 1.33668 6.33273 1.2007 7.73851C0.966908 10.1555 0.79974 13.8522 1.5174 16.6981C2.37354 20.0932 3.27529 21.9554 5.23622 24.8491C7.04494 27.5181 10.5192 30.3792 12.5048 31.9002C13.3855 32.5749 14.5959 32.5661 15.4683 31.8808C17.4206 30.3473 20.8257 27.4826 22.6307 24.8491C24.6181 21.9495 25.5867 20.1069 26.4695 16.6981C27.2257 13.7784 27.0238 9.95404 26.7742 7.54303C26.6371 6.21829 25.4348 5.32195 24.1574 4.94537C23.6449 4.79429 23.1212 4.56512 22.6722 4.21858C21.881 3.60781 21.1853 2.825 20.6807 2.18432C20.1204 1.47285 19.2836 1 18.378 1Z" stroke="white" stroke-width="2" stroke-linecap="round"/>
<rect x="14" y="21.3137" width="8" height="8" rx="2" transform="rotate(-135 14 21.3137)" fill="white"/>
</svg>
